HIERARCHY
ROOT Hips
{
	OFFSET -14.64140 90.27770 -84.91600
	CHANNELS 6 Xposition Yposition Zposition Zrotation Xrotation Yrotation
	JOINT Spine
	{
		OFFSET 0.00000 13.20850 -1.60436
		CHANNELS 3 Zrotation Xrotation Yrotation
		JOINT Spine1
		{
			OFFSET 0.00000 8.61716 0.00000
			CHANNELS 3 Zrotation Xrotation Yrotation
			JOINT Spine2
			{
				OFFSET 0.00000 8.61717 0.00000
				CHANNELS 3 Zrotation Xrotation Yrotation
				JOINT Spine3
				{
					OFFSET 0.00000 8.61717 0.00000
					CHANNELS 3 Zrotation Xrotation Yrotation
					JOINT Neck
					{
						OFFSET 0.00000 11.07920 1.10792
						CHANNELS 3 Zrotation Xrotation Yrotation
						JOINT Neck1
						{
							OFFSET 0.00000 7.08032 0.00000
							CHANNELS 3 Zrotation Xrotation Yrotation
							JOINT Head
							{
								OFFSET 0.00000 7.08031 0.00000
								CHANNELS 3 Zrotation Xrotation Yrotation
								End site
								{
									OFFSET 0.00000 0.00000 0.00000
								}
							}
						}
					}
					JOINT RightShoulder
					{
						OFFSET -0.01000 7.91373 5.19711
						CHANNELS 3 Zrotation Xrotation Yrotation
						JOINT RightArm
						{
							OFFSET -18.41580 0.00000 0.00000
							CHANNELS 3 Zrotation Xrotation Yrotation
							JOINT RightForeArm
							{
								OFFSET -29.11090 0.00000 0.00000
								CHANNELS 3 Zrotation Xrotation Yrotation
								JOINT RightHand
								{
									OFFSET -24.65040 0.00000 0.00000
									CHANNELS 3 Zrotation Xrotation Yrotation
									JOINT RightHandThumb1
									{
										OFFSET -5.35114 -0.85590 3.97906
										CHANNELS 3 Zrotation Xrotation Yrotation
										JOINT RightHandThumb2
										{
											OFFSET -4.52789 0.00000 0.00000
											CHANNELS 3 Zrotation Xrotation Yrotation
											JOINT RightHandThumb3
											{
												OFFSET -2.46976 0.00000 0.00000
												CHANNELS 3 Zrotation Xrotation Yrotation
												End site
												{
													OFFSET 0.00000 0.00000 0.00000
												}
											}
										}
									}
									JOINT RightHandIndex1
									{
										OFFSET -14.26970 0.00000 2.88139
										CHANNELS 3 Zrotation Xrotation Yrotation
										JOINT RightHandIndex2
										{
											OFFSET -5.48836 0.00000 0.00000
											CHANNELS 3 Zrotation Xrotation Yrotation
											JOINT RightHandIndex3
											{
												OFFSET -3.01859 0.00000 0.00000
												CHANNELS 3 Zrotation Xrotation Yrotation
												End site
												{
													OFFSET 0.00000 0.00000 0.00000
												}
											}
										}
									}
									JOINT RightHandMiddle1
									{
										OFFSET -14.26970 0.00000 -0.09147
										CHANNELS 3 Zrotation Xrotation Yrotation
										JOINT RightHandMiddle2
										{
											OFFSET -6.17441 0.00000 0.00000
											CHANNELS 3 Zrotation Xrotation Yrotation
											JOINT RightHandMiddle3
											{
												OFFSET -3.56743 0.00000 0.00000
												CHANNELS 3 Zrotation Xrotation Yrotation
												End site
												{
													OFFSET 0.00000 0.00000 0.00000
												}
											}
										}
									}
									JOINT RightHandRing1
									{
										OFFSET -12.69180 0.00000 -3.06433
										CHANNELS 3 Zrotation Xrotation Yrotation
										JOINT RightHandRing2
										{
											OFFSET -5.62556 0.00000 0.00000
											CHANNELS 3 Zrotation Xrotation Yrotation
											JOINT RightHandRing3
											{
												OFFSET -3.56744 0.00000 0.00000
												CHANNELS 3 Zrotation Xrotation Yrotation
												End site
												{
													OFFSET 0.00000 0.00000 0.00000
												}
											}
										}
									}
									JOINT RightHandPinky1
									{
										OFFSET -11.11390 0.00000 -6.03719
										CHANNELS 3 Zrotation Xrotation Yrotation
										JOINT RightHandPinky2
										{
											OFFSET -4.52789 0.00000 0.00000
											CHANNELS 3 Zrotation Xrotation Yrotation
											JOINT RightHandPinky3
											{
												OFFSET -2.46976 0.00000 0.00000
												CHANNELS 3 Zrotation Xrotation Yrotation
												End site
												{
													OFFSET 0.00000 0.00000 0.00000
												}
											}
										}
									}
								}
							}
						}
					}
					JOINT LeftShoulder
					{
						OFFSET 0.01000 7.91373 5.19711
						CHANNELS 3 Zrotation Xrotation Yrotation
						JOINT LeftArm
						{
							OFFSET 18.41580 0.00000 0.00000
							CHANNELS 3 Zrotation Xrotation Yrotation
							JOINT LeftForeArm
							{
								OFFSET 29.11090 0.00000 0.00000
								CHANNELS 3 Zrotation Xrotation Yrotation
								JOINT LeftHand
								{
									OFFSET 24.65040 0.00000 0.00000
									CHANNELS 3 Zrotation Xrotation Yrotation
									JOINT LeftHandThumb1
									{
										OFFSET 5.35114 -0.85590 3.97906
										CHANNELS 3 Zrotation Xrotation Yrotation
										JOINT LeftHandThumb2
										{
											OFFSET 4.52789 0.00000 0.00000
											CHANNELS 3 Zrotation Xrotation Yrotation
											JOINT LeftHandThumb3
											{
												OFFSET 2.46977 0.00000 0.00000
												CHANNELS 3 Zrotation Xrotation Yrotation
												End site
												{
													OFFSET 0.00000 0.00000 0.00000
												}
											}
										}
									}
									JOINT LeftHandIndex1
									{
										OFFSET 14.26970 0.00000 2.88139
										CHANNELS 3 Zrotation Xrotation Yrotation
										JOINT LeftHandIndex2
										{
											OFFSET 5.48836 0.00000 0.00000
											CHANNELS 3 Zrotation Xrotation Yrotation
											JOINT LeftHandIndex3
											{
												OFFSET 3.01859 0.00000 0.00000
												CHANNELS 3 Zrotation Xrotation Yrotation
												End site
												{
													OFFSET 0.00000 0.00000 0.00000
												}
											}
										}
									}
									JOINT LeftHandMiddle1
									{
										OFFSET 14.26970 0.00000 -0.09147
										CHANNELS 3 Zrotation Xrotation Yrotation
										JOINT LeftHandMiddle2
										{
											OFFSET 6.17440 0.00000 0.00000
											CHANNELS 3 Zrotation Xrotation Yrotation
											JOINT LeftHandMiddle3
											{
												OFFSET 3.56744 0.00000 0.00000
												CHANNELS 3 Zrotation Xrotation Yrotation
												End site
												{
													OFFSET 0.00000 0.00000 0.00000
												}
											}
										}
									}
									JOINT LeftHandRing1
									{
										OFFSET 12.69180 0.00000 -3.06433
										CHANNELS 3 Zrotation Xrotation Yrotation
										JOINT LeftHandRing2
										{
											OFFSET 5.62556 0.00000 0.00000
											CHANNELS 3 Zrotation Xrotation Yrotation
											JOINT LeftHandRing3
											{
												OFFSET 3.56744 0.00000 0.00000
												CHANNELS 3 Zrotation Xrotation Yrotation
												End site
												{
													OFFSET 0.00000 0.00000 0.00000
												}
											}
										}
									}
									JOINT LeftHandPinky1
									{
										OFFSET 11.11390 0.00000 -6.03719
										CHANNELS 3 Zrotation Xrotation Yrotation
										JOINT LeftHandPinky2
										{
											OFFSET 4.52789 0.00000 0.00000
											CHANNELS 3 Zrotation Xrotation Yrotation
											JOINT LeftHandPinky3
											{
												OFFSET 2.46976 0.00000 0.00000
												CHANNELS 3 Zrotation Xrotation Yrotation
												End site
												{
													OFFSET 0.00000 0.00000 0.00000
												}
											}
										}
									}
								}
							}
						}
					}
					JOINT pCube4
					{
						OFFSET 0.00000 10.91090 1.10792
						CHANNELS 3 Zrotation Xrotation Yrotation
						End site
						{
							OFFSET 0.00000 0.00000 0.00000
						}
					}
				}
			}
		}
	}
	JOINT RightUpLeg
	{
		OFFSET -9.98441 0.00000 0.00000
		CHANNELS 3 Zrotation Xrotation Yrotation
		JOINT RightLeg
		{
			OFFSET 0.00000 -42.11790 0.00000
			CHANNELS 3 Zrotation Xrotation Yrotation
			JOINT RightFoot
			{
				OFFSET 0.00000 -45.00020 -0.00001
				CHANNELS 3 Zrotation Xrotation Yrotation
				JOINT RightForeFoot
				{
					OFFSET 0.00000 -3.74820 0.00000
					CHANNELS 3 Zrotation Xrotation Yrotation
					JOINT RightToeBase
					{
						OFFSET 0.00000 0.06325 14.43120
						CHANNELS 3 Zrotation Xrotation Yrotation
						End site
						{
							OFFSET 0.00000 0.00000 0.00000
						}
					}
				}
			}
		}
	}
	JOINT LeftUpLeg
	{
		OFFSET 9.98441 0.00000 0.00000
		CHANNELS 3 Zrotation Xrotation Yrotation
		JOINT LeftLeg
		{
			OFFSET 0.00000 -42.11800 0.00000
			CHANNELS 3 Zrotation Xrotation Yrotation
			JOINT LeftFoot
			{
				OFFSET 0.00000 -45.00070 0.00000
				CHANNELS 3 Zrotation Xrotation Yrotation
				JOINT LeftForeFoot
				{
					OFFSET 0.00000 -3.74824 0.00000
					CHANNELS 3 Zrotation Xrotation Yrotation
					JOINT LeftToeBase
					{
						OFFSET 0.00000 0.06325 14.43110
						CHANNELS 3 Zrotation Xrotation Yrotation
						End site
						{
							OFFSET 0.00000 0.00000 0.00000
						}
					}
				}
			}
		}
	}
}
MOTION
Frames: 4
Frame Time: 0.050000
-0.0432509709743395 0.01857360218126462 0.006980069805585441 -0.036447612521754956 0.037150193291270395 0.021407381468654327 -4.138081761417183 2.700069976479351 -0.6932870525809899 -0.8822703682430584 3.60520640737169 0.3619049067806681 -1.2052314888602023 -1.384217228522535 -0.9104593972270011 -0.16724914484341394 0.2019969537754331 -0.8427470204032097 -0.04128108420159783 10.66844349125723 -0.6924649825822181 -0.08700987719131649 -1.6410576898832754 -4.216255035965219 0.3174441755272833 -17.377600293713716 -0.3420388662952426 -2.2701769573190487 1.235788437206123 -13.063729221377011 72.59625277515987 10.444099245812167 11.042524771486828 34.58591741542488 6.0646667251352095 95.31603026218737 18.707311577946857 -0.32349045696212525 -3.6712129610693687 4.512101968793986 -0.1078692150340424 -1.5653521621653785 -0.004916922855478512 -0.009651733387795323 -56.25493397180887 0.011453643469651475 -0.02472744158572793 -56.19992118938683 -38.76745568758866 0.010946055368427493 0.0005774327408258456 -0.014800329658491882 0.019011001524813238 0.018556939292175462 0.0004021289955225545 0.0143966433101882 0.010321335566022025 -36.64403835285797 0.0436667493854048 0.03250525598711005 0.039470426818818405 0.035730836411820184 -0.027598847723791523 0.0007943386524143973 0.037721752160601876 0.006722034808242635 -19.733133253547205 0.008440061851491418 -0.0340346714120447 0.035732157266063595 0.019784072911971283 -0.03753335064016128 0.0009330679095338734 -0.015257078280401676 0.004002575756024135 24.064249699807917 -0.012938743145498876 -0.0003011746537530948 28.874113677726143 -0.03163162574052657 0.03331421562569794 28.854954574297995 -0.011576567057284475 -0.016776998111766927 3.20159003307787 1.0305392173425114 11.701040355216032 -69.09060860803639 24.724631563240383 -9.420936473288567 -21.301693117632425 4.734548387899612 -75.61392532488313 -14.265791162108414 0.43277513056491534 1.3640163053128982 -0.44924507479660447 0.08147655696991889 -8.091169945599166 -0.03559248023928764 -0.0014982641867232968 44.568725427553204 -0.04230864560036383 -0.02634700923459577 44.529669235244555 12.442180821560228 0.004894739292803902 0.0041058726451373 -0.02860658112681278 -0.004603223973531778 0.044329313844496405 -0.029539685361026153 -0.0016842841566006655 0.02670790874322944 11.115372595407504 0.005940126322122929 -0.02575348633204339 -0.029368059270470634 0.049091696348095876 -0.029304103577792028 0.03219517390635164 -0.013530770248150593 -0.04089080370936442 4.752025329949131 -0.005906559792766315 -0.026135861749522368 0.03260947430929346 0.030868175141123794 0.0029597144779994287 0.009598843433901607 -0.016047922486256 -0.012058132954219536 -5.567190023636812 0.041789568144564526 -0.0005958955226138332 -6.705585433224266 -0.020820106170787833 -0.02397556896386097 -6.76610235988709 0.016537116808139084 0.03186890966706244 -0.04461667480604616 0.0083208059846521 0.035287143597301895 8.066163397565703 3.5148415254131176 -19.254857167244175 0.008686498160497748 10.415170936298518 0.010741755133053922 -5.605913855303007 -15.654556328164444 3.147539881854938 0.03503489937999975 0.039175001715481994 -0.004966193676288944 -0.009564446209840097 4.66797878744566 0.030654410674347994 12.46938418795365 -8.287083086890558 6.864465514942673 -0.02895846172373847 46.38960104994482 0.003926021759321379 -4.291958108005958 -14.70825619981751 -3.7992149169030043 -0.02733558705958347 -0.04690938370626615 -0.011195654056590378 0.003480495993419311 -10.702942620385098 0.02098375088582352 
0.017165693948005774 0.04081944542573979 0.03151220291478165 0.00322395378921375 0.023896467532450193 -0.015747479033525608 -4.181161253920572 2.6847834201868688 -0.6699515861232378 -0.8784682952192389 3.6144626854804875 0.3897545844841586 -1.2288112375902458 -1.4145263745178036 -1.021816773263865 -0.13219920922465073 0.2129345583928276 -0.8430508738718371 0.047004225485659835 10.58746928396404 -0.8373088619962189 -0.09398336854486315 -1.5483914258987863 -4.46037182371678 0.2861213001316814 -17.249456703528725 -0.35218924249089484 -2.1288280217156017 1.1969544266909231 -12.955446411273345 72.30950409879915 10.0005198698379 10.939380360404531 36.16766642420641 6.076765908020213 95.69371129433677 18.947754477079023 -0.3388870024982642 -3.9238986566486522 4.529178818475443 -0.09493574657691602 -1.5644450218932362 0.026388849461243053 -0.04637867206794987 -56.21686485749791 0.004797662457462852 0.00020926752826807716 -56.22997843121404 -38.73500048482427 0.03774806959070459 -0.033491803296854555 -0.03149438420763105 0.026954021090764054 -0.033664810893521746 0.01578372503542409 0.020880785584925315 0.013883787016773896 -36.68684123753655 -0.00041753194619648966 -0.03680988719175854 0.009334998121966854 -0.021984031622971485 -0.03532528229617973 -0.03810221132151801 -0.04505174504279838 0.02387749986881268 -19.74109447889654 0.01563880669036501 0.01841103251578282 -0.015466948196471307 -0.03587899831889313 -0.008436142382443588 -0.03735088332046868 0.011336132877974144 0.015589683167149654 24.065066052012394 -0.015713544749577223 0.03143103096754463 28.90117278995835 0.006534943334368675 -0.03793304240848748 28.910711500412706 -0.024314971935709476 0.03153736009239694 2.9341171388152776 1.0084552243608276 11.455401758589048 -69.11779100999976 24.94901775768009 -8.991100684577253 -20.822320024900478 4.2454005191012465 -74.1875132549415 -14.024160203004953 0.35474738395998384 1.472465351779169 -0.4866645636730887 0.0995436503166828 -8.093949507194576 0.04544118929136317 0.011656500509945772 44.58907499297507 0.02543028940078781 0.00629445963064126 44.57728741392395 12.458218180797212 -0.0098016044793543 -0.006435284461895059 0.0039849786878776335 0.003279517836250222 -0.011691395046280377 0.012850123963275503 0.03744895089609443 0.04627408666169595 11.100456360674386 -0.026701893211860006 0.023718545120524924 0.023940311227602578 0.010497710591684813 -0.01935501669996641 -0.04580398471475502 -0.01875442119883536 0.011592438252073175 4.746578185676391 -0.042397595031694754 0.020148748464219806 -0.011363237350356601 -0.015607603321568962 0.01322290135898074 -0.03863066146055853 0.030294575414324534 0.02709253104805071 -5.608811979511101 0.028602269616141172 0.0034059772935183695 -6.690229764354391 0.046783067383114496 -0.03419883907464016 -6.701603242378437 0.019502037954099192 0.006036877926651124 0.04660940754141525 -9.565015804845545e-06 0.012216176987791939 8.042512759378287 3.4853042019691194 -19.203444174844684 0.038753282212484766 10.366036528046683 0.034502326489319834 -5.661942773235187 -15.70654568411652 3.197078071790996 0.04312887051456834 -0.03824097447179274 0.016950189656776585 -0.007777497886367946 4.72293323619075 -0.013694484715189052 12.467021835473036 -8.195765475182005 6.869626796345106 0.025750546709205863 46.41829246760893 -0.0289582235242801 -4.341786285099115 -14.75679110489898 -3.8339397144210197 -0.010577268993376158 0.02607437243345632 0.033525902566198015 0.015347803561279308 -10.758666397200326 0.008519239385017691 
0.02096179886742428 -0.03440068699364423 0.006322744275636527 -0.031040926530666552 -0.04596670928922857 -0.04318507214897048 -4.2081009539230045 2.5491197827426597 -0.705768266633201 -0.8977448546029155 3.5714919597047228 0.3544668325004278 -1.2331492302327356 -1.4402851984201204 -0.9924650997317291 -0.13312391215596606 0.20002291244140613 -0.8330996331081415 0.0996173965929915 10.687295474313276 -0.9043802772038355 -0.03724277117892156 -1.377556641441942 -4.5149338068509355 0.31867650510185336 -17.016564453177256 -0.31916736805857304 -2.043301735182131 1.2459123567048118 -12.941876203964494 72.1610432156253 9.598262860743946 10.879402063871414 37.700346679754766 6.096020414328851 95.89016604249576 19.01264474543459 -0.28401218374878834 -4.072172749594012 4.513772431146749 -0.11089539197262055 -1.5639755500588506 -0.02103691434943481 -0.031229260984699254 -56.215832997915 -0.04713427868002506 0.01791778483895722 -56.28015836938174 -38.743106707513384 0.033815294400475523 0.01126853022599437 0.0036435033391671533 0.020356883726400304 0.04913280229300246 -0.01860931184090503 -0.013407305806321611 0.010487371703258707 -36.71950438751342 -0.044569083948330465 0.0405550974093907 0.03984951106451642 0.03877600813207623 0.019873366074359647 -0.01024931642696051 -0.027887178404448883 0.038912970267774606 -19.77230789703583 0.03528331081561725 -0.0008784943496714182 0.04405827182051086 0.0024104662966907696 0.02855211320773469 0.015366479552909748 -0.012085051573896636 0.00014576641064838064 24.074850760373188 0.014266717706524028 -0.03123883331667789 28.85530761887946 0.017362752128933255 0.020896923557508877 28.864967971214202 0.02177619233387545 0.0009746624836175916 2.8702029036504326 1.0031659074197694 11.375093389233724 -69.16998682522687 25.19913081949343 -8.59550915831732 -20.682257247099972 4.181944335665009 -73.42619448188192 -13.725287809743156 0.28889103025035245 1.666734186966073 -0.47264684510913835 0.08191010132076978 -8.155498515040684 0.04554118327209612 -0.02499967697600382 44.54080205293902 0.008932237612240388 -0.0318659201877041 44.541156398677025 12.495719361326527 0.03221552643774677 0.016634019051377943 0.008020828802228642 0.0007264056823543745 0.031811056766854584 0.02002686939793381 -0.007887876589915643 -0.03750121952574087 11.144803742358093 0.002807059411787581 0.005647570234289536 0.016746246117439058 0.033235820523246806 0.018250295692483858 0.006141122761286011 -0.009950255099750827 -0.04513644837133705 4.76996736083327 -0.018007826340016766 0.010657603268620735 0.03753154841949003 0.016898962184663528 -0.02366738253782226 -0.008145003968700907 -0.034361378561233516 0.029475278141886867 -5.608604373081337 0.028210980460763407 -0.04361690271846124 -6.6960974786467515 0.032064216865377804 0.00885947167612066 -6.72319751939733 0.033335558394479305 0.043657242704020584 0.016972083713948757 -0.029909125513008585 -0.0015461874244815598 7.997268952238799 3.5086052646858814 -19.22520705588539 0.013879091012261301 10.385461562145972 0.013902413156617416 -5.659876173711523 -15.636340969115485 3.191986665129988 0.028096343492834675 -0.021951857366833936 -0.020351433448820226 -0.007984159252035128 4.6989555702880645 0.03347110615658175 12.452991805940627 -8.213245563105373 6.885203429348391 0.020066053273728297 46.35615610366947 -0.019829251328636943 -4.374259348973856 -14.759358453159319 -3.851953339847672 -0.011650128724900758 -0.042919654182296 -0.007044500010066178 0.031234102139344674 -10.709253758899573 0.03498018810690045 
-0.032422398295863256 0.04483075026472849 0.03678581948197581 0.015700349772936217 0.01897668527329958 0.04329806543132059 -4.203984364873294 2.3789865871766214 -0.606897171842323 -0.9210043831289358 3.5923117611608695 0.41266541918752436 -1.2778361832451282 -1.4283333532836475 -1.054597004205536 -0.12964170378093273 0.21683546322319033 -0.9032281061776375 0.09455859664077433 10.906936638654166 -0.8737418353889489 -0.047499118731833385 -1.2756025451877087 -4.488635289679234 0.34747071763853066 -16.732084483171217 -0.38370065721569796 -2.156594008475798 1.2222436047702876 -12.936845342722416 72.13363134724342 9.31753276380592 10.930459829980427 39.09140361008935 6.107847644438834 96.0787796357674 18.91162579648332 -0.26948063301415287 -4.120981091316173 4.486603840714098 -0.12645480756782881 -1.582990941433236 -0.0006588590712784144 -0.025432838781695694 -56.26541254267302 -0.030517416319189722 0.029147944640227574 -56.22343661210807 -38.80625735029842 0.030554746542467773 0.013567334071040188 0.04429740145302843 -0.0066559031688149 0.030026404854817286 -0.03274556276331027 -0.018896814137946503 -0.0007290982223001774 -36.712802502490554 -0.024566250868847495 -0.023351939730951853 0.046392586406419134 -0.0009851977327325185 0.0214995581065504 0.012330130137019772 -0.04880145960893233 -0.042869720146861676 -19.72502842403426 0.026174971931357368 -0.004251103279991469 0.015909573540486673 -0.04407143346554082 0.02809948743989676 0.018219995756237412 -0.018341039152392963 -0.04945489162010115 24.05106743609945 0.027033577675837053 -0.027522565792811805 28.87949099804288 0.015842014204783615 0.01711742748767176 28.852586761719586 -0.012878019315568215 0.01111147166399742 2.995629308623071 1.0068972716215367 11.413862679831821 -69.15029270598257 25.38713817342964 -8.440784428654803 -20.746209693340273 4.411546303023096 -73.15867762719982 -13.468154237963262 0.17801545227067794 1.7828896690447837 -0.43561036958558197 0.06349352497947673 -8.171162887396692 0.00512632756921512 -0.017079990812366407 44.568480292788195 0.0004446172416514285 -0.027386459895614425 44.593942037574045 12.464531983189575 0.003499457015559508 0.019562332980615948 -0.02160287861339839 -0.03640873789773874 0.003918791598029754 0.040723363210927926 -0.025854270869343565 -0.0014896252881468064 11.140179246385188 0.0011159134812572292 -0.02123100599479254 0.013650502228916955 0.0391571117423404 0.0191347881343303 0.015487644336794754 -0.0011113743632884243 0.031530826284369144 4.7264318318318965 0.03307051728360482 -0.02312829575132764 0.007121999890841018 0.034474955771363856 -0.00373617158108246 0.0031073192753337015 -0.04770490211422386 0.02628067807657856 -5.609607830102293 -0.01838218075915669 0.01692951512753733 -6.7248723818373835 0.021707728321935477 0.025390160562579693 -6.675578018937512 -0.00739850422771325 -0.030437324745119565 0.03685644044991556 0.04786190378872681 -0.023613265036725818 8.084472308032757 3.4833815936657153 -19.210532520313684 0.0052314193662665 10.365253738973761 0.0474045234523275 -5.6487775634897 -15.630930240110384 3.1565829906941683 -0.010655761794346488 0.008200380925519076 -0.00562401293251629 -0.04743473296819189 4.649337961603645 0.04847779637845496 12.486108255815152 -8.234918974863625 6.844935492546829 0.02702812141165304 46.349709085128175 0.015617003720640796 -4.312122312024351 -14.702057920040792 -3.8120821901173656 -0.01750669364356455 0.013466256392969868 -0.010706027254870226 0.047252448063098786 -10.738662542409434 -0.023854418382266946 
